<mxfile host="drawio-plugin" modified="2025-09-12T00:42:53.634Z" agent="Mozilla/5.0 (Windows NT 10.0; Win64; x64) AppleWebKit/537.36 (KHTML, like Gecko) Chrome/122.0.0.0 Safari/537.36" etag="TLNnibZHvyigDPAnVtj9" version="22.1.22" type="embed" pages="3">
  <diagram id="c1" name="C1 - Diagrama de Secuencia">
    <mxGraphModel dx="1203" dy="1917" grid="1" gridSize="10" guides="1" tooltips="1" connect="1" arrows="1" fold="1" page="1" pageScale="1" pageWidth="1169" pageHeight="827" math="0" shadow="0">
      <root>
        <mxCell id="0" />
        <mxCell id="1" parent="0" />
        <mxCell id="dcydOrsu2k0qFqCy2xjL-8" style="edgeStyle=orthogonalEdgeStyle;rounded=0;orthogonalLoop=1;jettySize=auto;html=1;exitX=0.5;exitY=1;exitDx=0;exitDy=0;entryX=0.5;entryY=0;entryDx=0;entryDy=0;labelBackgroundColor=none;fontColor=default;strokeColor=#23445D;" parent="1" source="pc" target="dcydOrsu2k0qFqCy2xjL-7" edge="1">
          <mxGeometry relative="1" as="geometry" />
        </mxCell>
        <mxCell id="pc" value="Cliente (Postman/App)" style="rounded=1;whiteSpace=wrap;html=1;labelBackgroundColor=none;fillColor=#182E3E;strokeColor=#FFFFFF;fontColor=#FFFFFF;" parent="1" vertex="1">
          <mxGeometry x="60" y="80" width="150" height="40" as="geometry" />
        </mxCell>
        <mxCell id="dcydOrsu2k0qFqCy2xjL-6" style="edgeStyle=orthogonalEdgeStyle;rounded=0;orthogonalLoop=1;jettySize=auto;html=1;exitX=0.5;exitY=1;exitDx=0;exitDy=0;entryX=0.5;entryY=0;entryDx=0;entryDy=0;labelBackgroundColor=none;fontColor=default;strokeColor=#23445D;" parent="1" source="pctrl" target="dcydOrsu2k0qFqCy2xjL-5" edge="1">
          <mxGeometry relative="1" as="geometry" />
        </mxCell>
        <mxCell id="pctrl" value="LoanValidationsController" style="rounded=1;whiteSpace=wrap;html=1;labelBackgroundColor=none;fillColor=#182E3E;strokeColor=#FFFFFF;fontColor=#FFFFFF;" parent="1" vertex="1">
          <mxGeometry x="490" y="80" width="170" height="40" as="geometry" />
        </mxCell>
        <mxCell id="dcydOrsu2k0qFqCy2xjL-11" style="edgeStyle=orthogonalEdgeStyle;rounded=0;orthogonalLoop=1;jettySize=auto;html=1;exitX=0.5;exitY=1;exitDx=0;exitDy=0;labelBackgroundColor=none;fontColor=default;strokeColor=#23445D;" parent="1" source="psrv" edge="1">
          <mxGeometry relative="1" as="geometry">
            <mxPoint x="884.5" y="480" as="targetPoint" />
          </mxGeometry>
        </mxCell>
        <mxCell id="psrv" value="LoanRuleService" style="rounded=1;whiteSpace=wrap;html=1;labelBackgroundColor=none;fillColor=#182E3E;strokeColor=#FFFFFF;fontColor=#FFFFFF;" parent="1" vertex="1">
          <mxGeometry x="810" y="80" width="150" height="40" as="geometry" />
        </mxCell>
        <mxCell id="dcydOrsu2k0qFqCy2xjL-15" style="edgeStyle=orthogonalEdgeStyle;rounded=0;orthogonalLoop=1;jettySize=auto;html=1;exitX=0.5;exitY=1;exitDx=0;exitDy=0;entryX=0.5;entryY=0;entryDx=0;entryDy=0;labelBackgroundColor=none;fontColor=default;strokeColor=#23445D;" parent="1" source="pres" target="dcydOrsu2k0qFqCy2xjL-14" edge="1">
          <mxGeometry relative="1" as="geometry" />
        </mxCell>
        <mxCell id="pres" value="LoanValidationResult" style="rounded=1;whiteSpace=wrap;html=1;labelBackgroundColor=none;fillColor=#182E3E;strokeColor=#FFFFFF;fontColor=#FFFFFF;" parent="1" vertex="1">
          <mxGeometry x="1580" y="80" width="160" height="40" as="geometry" />
        </mxCell>
        <mxCell id="l1" style="edgeStyle=orthogonalEdgeStyle;endArrow=none;dashed=1;html=1;labelBackgroundColor=none;fontColor=default;strokeColor=#23445D;" parent="1" source="pc" edge="1">
          <mxGeometry relative="1" as="geometry">
            <mxPoint x="135" y="700" as="target" />
          </mxGeometry>
        </mxCell>
        <mxCell id="l2" style="edgeStyle=orthogonalEdgeStyle;endArrow=none;dashed=1;html=1;labelBackgroundColor=none;fontColor=default;strokeColor=#23445D;" parent="1" source="pctrl" edge="1">
          <mxGeometry relative="1" as="geometry">
            <mxPoint x="385" y="700" as="target" />
          </mxGeometry>
        </mxCell>
        <mxCell id="l3" style="edgeStyle=orthogonalEdgeStyle;endArrow=none;dashed=1;html=1;labelBackgroundColor=none;fontColor=default;strokeColor=#23445D;" parent="1" source="psrv" edge="1">
          <mxGeometry relative="1" as="geometry">
            <mxPoint x="615" y="700" as="target" />
          </mxGeometry>
        </mxCell>
        <mxCell id="l4" style="edgeStyle=orthogonalEdgeStyle;endArrow=none;dashed=1;html=1;labelBackgroundColor=none;fontColor=default;strokeColor=#23445D;" parent="1" source="prules" edge="1">
          <mxGeometry relative="1" as="geometry">
            <mxPoint x="825" y="700" as="target" />
          </mxGeometry>
        </mxCell>
        <mxCell id="l5" style="edgeStyle=orthogonalEdgeStyle;endArrow=none;dashed=1;html=1;labelBackgroundColor=none;fontColor=default;strokeColor=#23445D;" parent="1" source="pres" edge="1">
          <mxGeometry relative="1" as="geometry">
            <mxPoint x="1030" y="700" as="target" />
          </mxGeometry>
        </mxCell>
        <mxCell id="m1" value="POST /loan-validations&#xa;LoanValidationRequest" style="endArrow=block;html=1;labelBackgroundColor=none;fontColor=default;strokeColor=#23445D;" parent="1" edge="1">
          <mxGeometry relative="1" as="geometry">
            <Array as="points">
              <mxPoint x="360" y="170" />
            </Array>
            <mxPoint x="160" y="170" as="sourcePoint" />
            <mxPoint x="560" y="170" as="targetPoint" />
          </mxGeometry>
        </mxCell>
        <mxCell id="m2" value="validar(salary, amount, term, lastLoanDate)" style="endArrow=block;html=1;labelBackgroundColor=none;fontColor=default;strokeColor=#23445D;" parent="1" edge="1">
          <mxGeometry x="-0.1818" y="20" relative="1" as="geometry">
            <mxPoint x="590" y="199" as="sourcePoint" />
            <mxPoint x="870" y="199" as="targetPoint" />
            <mxPoint x="-1" as="offset" />
          </mxGeometry>
        </mxCell>
        <mxCell id="m7" value="Construir LoanValidationResult&#xa;eligible + reasons + monthPayment" style="endArrow=block;html=1;labelBackgroundColor=none;fontColor=default;strokeColor=#23445D;" parent="1" edge="1">
          <mxGeometry x="0.5769" y="30" relative="1" as="geometry">
            <mxPoint x="590" y="460" as="sourcePoint" />
            <mxPoint x="1630" y="460" as="targetPoint" />
            <mxPoint as="offset" />
          </mxGeometry>
        </mxCell>
        <mxCell id="dcydOrsu2k0qFqCy2xjL-13" style="edgeStyle=orthogonalEdgeStyle;rounded=0;orthogonalLoop=1;jettySize=auto;html=1;exitX=0.5;exitY=1;exitDx=0;exitDy=0;entryX=0.5;entryY=0;entryDx=0;entryDy=0;labelBackgroundColor=none;fontColor=default;strokeColor=#23445D;" parent="1" source="prules" target="dcydOrsu2k0qFqCy2xjL-12" edge="1">
          <mxGeometry relative="1" as="geometry" />
        </mxCell>
        <mxCell id="prules" value="Reglas R1-R4" style="rounded=1;whiteSpace=wrap;html=1;labelBackgroundColor=none;fillColor=#182E3E;strokeColor=#FFFFFF;fontColor=#FFFFFF;" parent="1" vertex="1">
          <mxGeometry x="1200" y="80" width="130" height="40" as="geometry" />
        </mxCell>
        <mxCell id="dcydOrsu2k0qFqCy2xjL-5" value="LoanValidationsController" style="rounded=1;whiteSpace=wrap;html=1;labelBackgroundColor=none;fillColor=#182E3E;strokeColor=#FFFFFF;fontColor=#FFFFFF;" parent="1" vertex="1">
          <mxGeometry x="490" y="490" width="170" height="40" as="geometry" />
        </mxCell>
        <mxCell id="dcydOrsu2k0qFqCy2xjL-7" value="Cliente (Postman/App)" style="rounded=1;whiteSpace=wrap;html=1;labelBackgroundColor=none;fillColor=#182E3E;strokeColor=#FFFFFF;fontColor=#FFFFFF;" parent="1" vertex="1">
          <mxGeometry x="60" y="490" width="150" height="40" as="geometry" />
        </mxCell>
        <mxCell id="dcydOrsu2k0qFqCy2xjL-10" value="LoanRuleService" style="rounded=1;whiteSpace=wrap;html=1;labelBackgroundColor=none;fillColor=#182E3E;strokeColor=#FFFFFF;fontColor=#FFFFFF;" parent="1" vertex="1">
          <mxGeometry x="810" y="490" width="150" height="40" as="geometry" />
        </mxCell>
        <mxCell id="dcydOrsu2k0qFqCy2xjL-12" value="Reglas R1-R4" style="rounded=1;whiteSpace=wrap;html=1;labelBackgroundColor=none;fillColor=#182E3E;strokeColor=#FFFFFF;fontColor=#FFFFFF;" parent="1" vertex="1">
          <mxGeometry x="1200" y="490" width="130" height="40" as="geometry" />
        </mxCell>
        <mxCell id="dcydOrsu2k0qFqCy2xjL-14" value="LoanValidationResult" style="rounded=1;whiteSpace=wrap;html=1;labelBackgroundColor=none;fillColor=#182E3E;strokeColor=#FFFFFF;fontColor=#FFFFFF;" parent="1" vertex="1">
          <mxGeometry x="1580" y="500" width="160" height="40" as="geometry" />
        </mxCell>
        <mxCell id="dcydOrsu2k0qFqCy2xjL-17" value="" style="endArrow=none;dashed=1;html=1;dashPattern=1 3;strokeWidth=2;rounded=0;labelBackgroundColor=none;fontColor=default;strokeColor=#23445D;" parent="1" edge="1">
          <mxGeometry width="50" height="50" relative="1" as="geometry">
            <mxPoint x="140" y="470" as="sourcePoint" />
            <mxPoint x="570" y="470" as="targetPoint" />
          </mxGeometry>
        </mxCell>
        <mxCell id="dcydOrsu2k0qFqCy2xjL-18" value="" style="endArrow=classic;startArrow=classic;html=1;rounded=0;labelBackgroundColor=none;fontColor=default;strokeColor=#23445D;fontSize=10;" parent="1" edge="1">
          <mxGeometry width="50" height="50" relative="1" as="geometry">
            <mxPoint x="900" y="228.95" as="sourcePoint" />
            <mxPoint x="1250" y="228.95" as="targetPoint" />
          </mxGeometry>
        </mxCell>
        <mxCell id="dcydOrsu2k0qFqCy2xjL-19" value="" style="endArrow=classic;startArrow=classic;html=1;rounded=0;labelBackgroundColor=none;fontColor=default;strokeColor=#23445D;fontSize=10;" parent="1" edge="1">
          <mxGeometry width="50" height="50" relative="1" as="geometry">
            <mxPoint x="900" y="290" as="sourcePoint" />
            <mxPoint x="1250" y="290" as="targetPoint" />
          </mxGeometry>
        </mxCell>
        <mxCell id="dcydOrsu2k0qFqCy2xjL-20" value="" style="endArrow=classic;startArrow=classic;html=1;rounded=0;labelBackgroundColor=none;fontColor=default;strokeColor=#23445D;fontSize=10;" parent="1" edge="1">
          <mxGeometry width="50" height="50" relative="1" as="geometry">
            <mxPoint x="900" y="400" as="sourcePoint" />
            <mxPoint x="1250" y="400" as="targetPoint" />
          </mxGeometry>
        </mxCell>
        <mxCell id="dcydOrsu2k0qFqCy2xjL-21" value="" style="endArrow=classic;startArrow=classic;html=1;rounded=0;labelBackgroundColor=none;fontColor=default;strokeColor=#23445D;fontSize=10;" parent="1" edge="1">
          <mxGeometry width="50" height="50" relative="1" as="geometry">
            <mxPoint x="900" y="340" as="sourcePoint" />
            <mxPoint x="1250" y="340" as="targetPoint" />
          </mxGeometry>
        </mxCell>
        <mxCell id="dcydOrsu2k0qFqCy2xjL-22" value="" style="endArrow=none;dashed=1;html=1;dashPattern=1 3;strokeWidth=2;rounded=0;labelBackgroundColor=none;fontColor=default;strokeColor=#23445D;fontSize=10;" parent="1" edge="1">
          <mxGeometry width="50" height="50" relative="1" as="geometry">
            <mxPoint x="910" y="430" as="sourcePoint" />
            <mxPoint x="1220" y="430" as="targetPoint" />
          </mxGeometry>
        </mxCell>
        <mxCell id="dcydOrsu2k0qFqCy2xjL-23" value="&lt;span style=&quot;color: rgb(0, 0, 0); font-family: Helvetica; font-size: 10px; font-style: normal; font-variant-ligatures: normal; font-variant-caps: normal; font-weight: 400; letter-spacing: normal; orphans: 2; text-align: center; text-indent: 0px; text-transform: none; widows: 2; word-spacing: 0px; -webkit-text-stroke-width: 0px; background-color: rgb(255, 255, 255); text-decoration-thickness: initial; text-decoration-style: initial; text-decoration-color: initial; float: none; display: inline !important;&quot;&gt;Resultado R3&lt;/span&gt;" style="text;whiteSpace=wrap;html=1;labelBackgroundColor=none;fontColor=#FFFFFF;fontSize=10;" parent="1" vertex="1">
          <mxGeometry x="1040" y="400" width="100" height="40" as="geometry" />
        </mxCell>
        <mxCell id="dcydOrsu2k0qFqCy2xjL-24" value="&lt;span style=&quot;color: rgb(0, 0, 0); font-family: Helvetica; font-size: 10px; font-style: normal; font-variant-ligatures: normal; font-variant-caps: normal; font-weight: 400; letter-spacing: normal; orphans: 2; text-align: center; text-indent: 0px; text-transform: none; widows: 2; word-spacing: 0px; -webkit-text-stroke-width: 0px; background-color: rgb(255, 255, 255); text-decoration-thickness: initial; text-decoration-style: initial; text-decoration-color: initial; float: none; display: inline !important;&quot;&gt;Resultado R2&lt;/span&gt;" style="text;whiteSpace=wrap;html=1;labelBackgroundColor=none;fontColor=#FFFFFF;fontSize=10;" parent="1" vertex="1">
          <mxGeometry x="1050" y="340" width="100" height="40" as="geometry" />
        </mxCell>
        <mxCell id="dcydOrsu2k0qFqCy2xjL-25" value="" style="endArrow=none;dashed=1;html=1;dashPattern=1 3;strokeWidth=2;rounded=0;labelBackgroundColor=none;fontColor=default;strokeColor=#23445D;fontSize=10;" parent="1" edge="1">
          <mxGeometry width="50" height="50" relative="1" as="geometry">
            <mxPoint x="920" y="370" as="sourcePoint" />
            <mxPoint x="1230" y="370" as="targetPoint" />
          </mxGeometry>
        </mxCell>
        <mxCell id="dcydOrsu2k0qFqCy2xjL-26" value="&lt;span style=&quot;color: rgb(0, 0, 0); font-family: Helvetica; font-size: 10px; font-style: normal; font-variant-ligatures: normal; font-variant-caps: normal; font-weight: 400; letter-spacing: normal; orphans: 2; text-align: center; text-indent: 0px; text-transform: none; widows: 2; word-spacing: 0px; -webkit-text-stroke-width: 0px; background-color: rgb(255, 255, 255); text-decoration-thickness: initial; text-decoration-style: initial; text-decoration-color: initial; float: none; display: inline !important;&quot;&gt;Ejecutar R2 (plazo 1..36)&lt;/span&gt;" style="text;whiteSpace=wrap;html=1;labelBackgroundColor=none;fontColor=#FFFFFF;fontSize=10;" parent="1" vertex="1">
          <mxGeometry x="1020" y="320" width="160" height="40" as="geometry" />
        </mxCell>
        <mxCell id="dcydOrsu2k0qFqCy2xjL-27" value="&lt;span style=&quot;color: rgb(0, 0, 0); font-family: Helvetica; font-size: 10px; font-style: normal; font-variant-ligatures: normal; font-variant-caps: normal; font-weight: 400; letter-spacing: normal; orphans: 2; text-align: center; text-indent: 0px; text-transform: none; widows: 2; word-spacing: 0px; -webkit-text-stroke-width: 0px; background-color: rgb(255, 255, 255); text-decoration-thickness: initial; text-decoration-style: initial; text-decoration-color: initial; float: none; display: inline !important;&quot;&gt;Ejecutar R3 (capacidad &amp;lt;= 40%)&lt;/span&gt;" style="text;whiteSpace=wrap;html=1;labelBackgroundColor=none;fontColor=#FFFFFF;fontSize=10;" parent="1" vertex="1">
          <mxGeometry x="1020" y="374" width="165" height="26" as="geometry" />
        </mxCell>
        <mxCell id="dcydOrsu2k0qFqCy2xjL-28" value="&lt;span style=&quot;color: rgb(0, 0, 0); font-family: Helvetica; font-size: 10px; font-style: normal; font-variant-ligatures: normal; font-variant-caps: normal; font-weight: 400; letter-spacing: normal; orphans: 2; text-align: center; text-indent: 0px; text-transform: none; widows: 2; word-spacing: 0px; -webkit-text-stroke-width: 0px; background-color: rgb(255, 255, 255); text-decoration-thickness: initial; text-decoration-style: initial; text-decoration-color: initial; float: none; display: inline !important;&quot;&gt;Resultado R1&lt;/span&gt;" style="text;whiteSpace=wrap;html=1;labelBackgroundColor=none;fontColor=#FFFFFF;fontSize=10;" parent="1" vertex="1">
          <mxGeometry x="1050" y="290" width="100" height="40" as="geometry" />
        </mxCell>
        <mxCell id="dcydOrsu2k0qFqCy2xjL-29" value="" style="endArrow=none;dashed=1;html=1;dashPattern=1 3;strokeWidth=2;rounded=0;labelBackgroundColor=none;fontColor=default;strokeColor=#23445D;fontSize=10;" parent="1" edge="1">
          <mxGeometry width="50" height="50" relative="1" as="geometry">
            <mxPoint x="920" y="320" as="sourcePoint" />
            <mxPoint x="1230" y="320" as="targetPoint" />
          </mxGeometry>
        </mxCell>
        <mxCell id="dcydOrsu2k0qFqCy2xjL-30" value="&lt;span style=&quot;color: rgb(0, 0, 0); font-family: Helvetica; font-size: 10px; font-style: normal; font-variant-ligatures: normal; font-variant-caps: normal; font-weight: 400; letter-spacing: normal; orphans: 2; text-align: center; text-indent: 0px; text-transform: none; widows: 2; word-spacing: 0px; -webkit-text-stroke-width: 0px; background-color: rgb(255, 255, 255); text-decoration-thickness: initial; text-decoration-style: initial; text-decoration-color: initial; float: none; display: inline !important;&quot;&gt;Ejecutar R1 (antigüedad)&lt;/span&gt;" style="text;whiteSpace=wrap;html=1;labelBackgroundColor=none;fontColor=#FFFFFF;fontSize=10;" parent="1" vertex="1">
          <mxGeometry x="1020" y="260" width="160" height="40" as="geometry" />
        </mxCell>
        <mxCell id="dcydOrsu2k0qFqCy2xjL-31" value="&lt;span style=&quot;color: rgb(0, 0, 0); font-family: Helvetica; font-size: 10px; font-style: normal; font-variant-ligatures: normal; font-variant-caps: normal; font-weight: 400; letter-spacing: normal; orphans: 2; text-align: center; text-indent: 0px; text-transform: none; widows: 2; word-spacing: 0px; -webkit-text-stroke-width: 0px; background-color: rgb(255, 255, 255); text-decoration-thickness: initial; text-decoration-style: initial; text-decoration-color: initial; float: none; display: inline !important;&quot;&gt;Ejecutar R4 (datos válidos)&lt;/span&gt;" style="text;whiteSpace=wrap;html=1;labelBackgroundColor=none;fontColor=#FFFFFF;fontSize=10;" parent="1" vertex="1">
          <mxGeometry x="1020" y="200" width="170" height="40" as="geometry" />
        </mxCell>
        <mxCell id="dcydOrsu2k0qFqCy2xjL-32" value="&lt;span style=&quot;color: rgb(0, 0, 0); font-family: Helvetica; font-size: 10px; font-style: normal; font-variant-ligatures: normal; font-variant-caps: normal; font-weight: 400; letter-spacing: normal; orphans: 2; text-align: center; text-indent: 0px; text-transform: none; widows: 2; word-spacing: 0px; -webkit-text-stroke-width: 0px; background-color: rgb(255, 255, 255); text-decoration-thickness: initial; text-decoration-style: initial; text-decoration-color: initial; float: none; display: inline !important;&quot;&gt;Resultado R4&lt;/span&gt;" style="text;whiteSpace=wrap;html=1;labelBackgroundColor=none;fontColor=#FFFFFF;fontSize=10;" parent="1" vertex="1">
          <mxGeometry x="1050" y="230" width="100" height="40" as="geometry" />
        </mxCell>
        <mxCell id="dcydOrsu2k0qFqCy2xjL-33" value="" style="endArrow=none;dashed=1;html=1;dashPattern=1 3;strokeWidth=2;rounded=0;labelBackgroundColor=none;fontColor=default;strokeColor=#23445D;fontSize=10;" parent="1" edge="1">
          <mxGeometry width="50" height="50" relative="1" as="geometry">
            <mxPoint x="920" y="260" as="sourcePoint" />
            <mxPoint x="1230" y="260" as="targetPoint" />
          </mxGeometry>
        </mxCell>
        <mxCell id="dcydOrsu2k0qFqCy2xjL-34" value="&lt;span style=&quot;color: rgb(0, 0, 0); font-family: Helvetica; font-size: 11px; font-style: normal; font-variant-ligatures: normal; font-variant-caps: normal; font-weight: 400; letter-spacing: normal; orphans: 2; text-align: center; text-indent: 0px; text-transform: none; widows: 2; word-spacing: 0px; -webkit-text-stroke-width: 0px; background-color: rgb(255, 255, 255); text-decoration-thickness: initial; text-decoration-style: initial; text-decoration-color: initial; float: none; display: inline !important;&quot;&gt;Response JSON (LoanValidationResult)&lt;/span&gt;" style="text;whiteSpace=wrap;html=1;labelBackgroundColor=none;fontColor=#FFFFFF;" parent="1" vertex="1">
          <mxGeometry x="260" y="440" width="230" height="40" as="geometry" />
        </mxCell>
      </root>
    </mxGraphModel>
  </diagram>
  <diagram id="c2" name="C2 - Diagrama de Componentes">
    <mxGraphModel dx="903" dy="1438" grid="1" gridSize="10" guides="1" tooltips="1" connect="1" arrows="1" fold="1" page="1" pageScale="1" pageWidth="1169" pageHeight="827" math="0" shadow="0">
      <root>
        <mxCell id="0c2" />
        <mxCell id="1c2" parent="0c2" />
        <mxCell id="bContract" value="Contract-first" style="swimlane;rounded=1;html=1;fillColor=#fff2cc;strokeColor=#d6b656;" parent="1c2" vertex="1">
          <mxGeometry x="60" y="60" width="300" height="140" as="geometry" />
        </mxCell>
        <mxCell id="bOpenApi" value="OpenAPI YAML&#xa;resources/openapi/loan-validation.yaml" style="rounded=1;whiteSpace=wrap;html=1;" parent="bContract" vertex="1">
          <mxGeometry x="20" y="20" width="260" height="40" as="geometry" />
        </mxCell>
        <mxCell id="bGen" value="openapi-generator (mvn generate-sources)" style="rounded=1;whiteSpace=wrap;html=1;" parent="bContract" vertex="1">
          <mxGeometry x="20" y="80" width="260" height="40" as="geometry" />
        </mxCell>
        <mxCell id="bClient" value="Cliente / Postman" style="rounded=1;whiteSpace=wrap;html=1;" parent="1c2" vertex="1">
          <mxGeometry x="420" y="60" width="150" height="40" as="geometry" />
        </mxCell>
        <mxCell id="bCtrl" value="Controller: LoanValidationsController" style="rounded=1;whiteSpace=wrap;html=1;" parent="1c2" vertex="1">
          <mxGeometry x="420" y="140" width="260" height="50" as="geometry" />
        </mxCell>
        <mxCell id="bSrv" value="Service: LoanRulesService" style="rounded=1;whiteSpace=wrap;html=1;" parent="1c2" vertex="1">
          <mxGeometry x="520" y="300" width="260" height="50" as="geometry" />
        </mxCell>
        <mxCell id="bModels" value="Models" style="swimlane;rounded=1;html=1;fillColor=#e8eaf6;strokeColor=#3949ab;" parent="1c2" vertex="1">
          <mxGeometry x="890" y="80" width="260" height="180" as="geometry" />
        </mxCell>
        <mxCell id="bReq" value="LoanValidationRequest" style="rounded=1;whiteSpace=wrap;html=1;" parent="bModels" vertex="1">
          <mxGeometry x="20" y="20" width="220" height="30" as="geometry" />
        </mxCell>
        <mxCell id="bRes" value="LoanValidationResponse" style="rounded=1;whiteSpace=wrap;html=1;" parent="bModels" vertex="1">
          <mxGeometry x="20" y="60" width="220" height="30" as="geometry" />
        </mxCell>
        <mxCell id="bResult" value="LoanValidationResult" style="rounded=1;whiteSpace=wrap;html=1;" parent="bModels" vertex="1">
          <mxGeometry x="20" y="100" width="220" height="30" as="geometry" />
        </mxCell>
        <mxCell id="bReason" value="Reason &amp; ReasonType" style="rounded=1;whiteSpace=wrap;html=1;" parent="bModels" vertex="1">
          <mxGeometry x="20" y="140" width="220" height="30" as="geometry" />
        </mxCell>
        <mxCell id="bConfig" value="Config" style="swimlane;rounded=1;html=1;fillColor=#e8f5e9;strokeColor=#2e7d32;" parent="1c2" vertex="1">
          <mxGeometry x="70" y="340" width="220" height="120" as="geometry" />
        </mxCell>
        <mxCell id="bClock" value="ClockConfig" style="rounded=1;whiteSpace=wrap;html=1;" parent="bConfig" vertex="1">
          <mxGeometry x="20" y="20" width="180" height="30" as="geometry" />
        </mxCell>
        <mxCell id="bAppYml" value="application.yml" style="rounded=1;whiteSpace=wrap;html=1;" parent="bConfig" vertex="1">
          <mxGeometry x="20" y="60" width="180" height="30" as="geometry" />
        </mxCell>
        <mxCell id="bPort" value="Port: LoanHistoryClient (interface)" style="rounded=1;whiteSpace=wrap;html=1;" parent="1c2" vertex="1">
          <mxGeometry x="820" y="360" width="260" height="40" as="geometry" />
        </mxCell>
        <mxCell id="bAdapter" value="Adapter: StubLoanHistoryClient" style="rounded=1;whiteSpace=wrap;html=1;" parent="1c2" vertex="1">
          <mxGeometry x="820" y="570" width="260" height="40" as="geometry" />
        </mxCell>
        <mxCell id="bExternal" value="Loan History Service (externo)" style="rounded=1;whiteSpace=wrap;html=1;" parent="1c2" vertex="1">
          <mxGeometry x="1100" y="410" width="220" height="40" as="geometry" />
        </mxCell>
        <mxCell id="bObs" value="Observability" style="swimlane;rounded=1;html=1;fillColor=#fff3e0;strokeColor=#ef6c00;" parent="1c2" vertex="1">
          <mxGeometry x="520" y="420" width="230" height="120" as="geometry" />
        </mxCell>
        <mxCell id="bLogs" value="Logs" style="rounded=1;whiteSpace=wrap;html=1;" parent="bObs" vertex="1">
          <mxGeometry x="20" y="20" width="190" height="30" as="geometry" />
        </mxCell>
        <mxCell id="bMetrics" value="Metrics" style="rounded=1;whiteSpace=wrap;html=1;" parent="bObs" vertex="1">
          <mxGeometry x="20" y="60" width="190" height="30" as="geometry" />
        </mxCell>
        <mxCell id="e1" value="" style="endArrow=block;html=1;" parent="1c2" source="bOpenApi" target="bGen" edge="1">
          <mxGeometry relative="1" as="geometry" />
        </mxCell>
        <mxCell id="e2" value="DTOs" style="endArrow=block;html=1;" parent="1c2" source="bGen" target="bCtrl" edge="1">
          <mxGeometry relative="1" as="geometry" />
        </mxCell>
        <mxCell id="e3" value="HTTP" style="endArrow=block;html=1;" parent="1c2" source="bClient" target="bCtrl" edge="1">
          <mxGeometry relative="1" as="geometry" />
        </mxCell>
        <mxCell id="e4" value="calls" style="endArrow=block;html=1;" parent="1c2" source="bCtrl" target="bSrv" edge="1">
          <mxGeometry relative="1" as="geometry" />
        </mxCell>
        <mxCell id="e5" value="" style="endArrow=block;html=1;" parent="1c2" source="bSrv" target="bReq" edge="1">
          <mxGeometry relative="1" as="geometry" />
        </mxCell>
        <mxCell id="e6" value="" style="endArrow=block;html=1;" parent="1c2" source="bSrv" target="bResult" edge="1">
          <mxGeometry relative="1" as="geometry" />
        </mxCell>
        <mxCell id="e7" value="" style="endArrow=block;html=1;" parent="1c2" source="bSrv" target="bPort" edge="1">
          <mxGeometry relative="1" as="geometry" />
        </mxCell>
        <mxCell id="e8" value="" style="endArrow=block;html=1;" parent="1c2" source="bPort" target="bAdapter" edge="1">
          <mxGeometry relative="1" as="geometry" />
        </mxCell>
        <mxCell id="e9" value="" style="endArrow=block;html=1;" parent="1c2" source="bAdapter" target="bExternal" edge="1">
          <mxGeometry relative="1" as="geometry" />
        </mxCell>
        <mxCell id="e10" value="" style="endArrow=block;html=1;" parent="1c2" source="bConfig" target="bSrv" edge="1">
          <mxGeometry relative="1" as="geometry" />
        </mxCell>
        <mxCell id="e11" value="" style="endArrow=block;html=1;" parent="1c2" source="bSrv" target="bObs" edge="1">
          <mxGeometry relative="1" as="geometry" />
        </mxCell>
      </root>
    </mxGraphModel>
  </diagram>
  <diagram id="c3" name="C3 - Diagrama de flujo (proceso)">
    <mxGraphModel dx="656" dy="1045" grid="1" gridSize="10" guides="1" tooltips="1" connect="1" arrows="1" fold="1" page="1" pageScale="1" pageWidth="1169" pageHeight="827" math="0" shadow="0">
      <root>
        <mxCell id="0c3" />
        <mxCell id="1c3" parent="0c3" />
        <mxCell id="st" value="Inicio" style="ellipse;whiteSpace=wrap;html=1;fillColor=#e1f5fe;strokeColor=#0277bd;" parent="1c3" vertex="1">
          <mxGeometry x="540" y="60" width="80" height="40" as="geometry" />
        </mxCell>
        <mxCell id="v4" value="Validar datos (R4)" style="rounded=1;whiteSpace=wrap;html=1;" parent="1c3" vertex="1">
          <mxGeometry x="510" y="130" width="140" height="40" as="geometry" />
        </mxCell>
        <mxCell id="r1" value="Antigüedad &lt; 3m?" style="rhombus;whiteSpace=wrap;html=1;" parent="1c3" vertex="1">
          <mxGeometry x="520" y="200" width="120" height="80" as="geometry" />
        </mxCell>
        <mxCell id="r2" value="Plazo 1..36?" style="rhombus;whiteSpace=wrap;html=1;" parent="1c3" vertex="1">
          <mxGeometry x="520" y="300" width="120" height="80" as="geometry" />
        </mxCell>
        <mxCell id="r3" value="Capacidad ≤ 40%?" style="rhombus;whiteSpace=wrap;html=1;" parent="1c3" vertex="1">
          <mxGeometry x="520" y="400" width="140" height="80" as="geometry" />
        </mxCell>
        <mxCell id="mp" value="Calcular monthlyPayment" style="rounded=1;whiteSpace=wrap;html=1;" parent="1c3" vertex="1">
          <mxGeometry x="510" y="500" width="160" height="40" as="geometry" />
        </mxCell>
        <mxCell id="ap" value="Aprobar solicitud" style="rounded=1;whiteSpace=wrap;html=1;" parent="1c3" vertex="1">
          <mxGeometry x="520" y="560" width="140" height="40" as="geometry" />
        </mxCell>
        <mxCell id="rech" value="Rechazar solicitud" style="rounded=1;whiteSpace=wrap;html=1;fillColor=#ffebee;strokeColor=#c62828;" parent="1c3" vertex="1">
          <mxGeometry x="150" y="360" width="150" height="40" as="geometry" />
        </mxCell>
        <mxCell id="fin" value="Fin" style="ellipse;whiteSpace=wrap;html=1;fillColor=#e1f5fe;strokeColor=#0277bd;" parent="1c3" vertex="1">
          <mxGeometry x="560" y="630" width="80" height="40" as="geometry" />
        </mxCell>
        <mxCell id="e01" value="" style="endArrow=block;html=1;" parent="1c3" source="st" target="v4" edge="1">
          <mxGeometry relative="1" as="geometry" />
        </mxCell>
        <mxCell id="e02" value="Inválidos" style="endArrow=block;html=1;" parent="1c3" source="v4" target="rech" edge="1">
          <mxGeometry relative="1" as="geometry" />
        </mxCell>
        <mxCell id="e03" value="OK" style="endArrow=block;html=1;" parent="1c3" source="v4" target="r1" edge="1">
          <mxGeometry relative="1" as="geometry" />
        </mxCell>
        <mxCell id="e04" value="No" style="endArrow=block;html=1;" parent="1c3" source="r1" target="rech" edge="1">
          <mxGeometry relative="1" as="geometry" />
        </mxCell>
        <mxCell id="e05" value="Sí" style="endArrow=block;html=1;" parent="1c3" source="r1" target="r2" edge="1">
          <mxGeometry relative="1" as="geometry" />
        </mxCell>
        <mxCell id="e06" value="No" style="endArrow=block;html=1;" parent="1c3" source="r2" target="rech" edge="1">
          <mxGeometry relative="1" as="geometry" />
        </mxCell>
        <mxCell id="e07" value="Sí" style="endArrow=block;html=1;" parent="1c3" source="r2" target="r3" edge="1">
          <mxGeometry relative="1" as="geometry" />
        </mxCell>
        <mxCell id="e08" value="No" style="endArrow=block;html=1;" parent="1c3" source="r3" target="rech" edge="1">
          <mxGeometry relative="1" as="geometry" />
        </mxCell>
        <mxCell id="e09" value="Sí" style="endArrow=block;html=1;" parent="1c3" source="r3" target="mp" edge="1">
          <mxGeometry relative="1" as="geometry" />
        </mxCell>
        <mxCell id="e10" value="" style="endArrow=block;html=1;" parent="1c3" source="mp" target="ap" edge="1">
          <mxGeometry relative="1" as="geometry" />
        </mxCell>
        <mxCell id="e11" value="" style="endArrow=block;html=1;" parent="1c3" source="ap" target="fin" edge="1">
          <mxGeometry relative="1" as="geometry" />
        </mxCell>
        <mxCell id="e12" value="" style="endArrow=block;html=1;" parent="1c3" source="rech" target="fin" edge="1">
          <mxGeometry relative="1" as="geometry" />
        </mxCell>
      </root>
    </mxGraphModel>
  </diagram>
</mxfile>
